<svg width="400" height="400" viewBox="0 0 400 400" fill="none" xmlns="http://www.w3.org/2000/svg">
  <g opacity="0.1">
    <circle cx="200" cy="200" r="180" stroke="currentColor" stroke-width="0.5" stroke-dasharray="4 4"/>
    <circle cx="200" cy="200" r="140" stroke="currentColor" stroke-width="1"/>
    <path d="M200 20L220 60H180L200 20Z" fill="currentColor" transform="rotate(0 200 200)"/>
    <path d="M200 20L220 60H180L200 20Z" fill="currentColor" transform="rotate(45 200 200)"/>
    <path d="M200 20L220 60H180L200 20Z" fill="currentColor" transform="rotate(90 200 200)"/>
    <path d="M200 20L220 60H180L200 20Z" fill="currentColor" transform="rotate(135 200 200)"/>
    <path d="M200 20L220 60H180L200 20Z" fill="currentColor" transform="rotate(180 200 200)"/>
    <path d="M200 20L220 60H180L200 20Z" fill="currentColor" transform="rotate(225 200 200)"/>
    <path d="M200 20L220 60H180L200 20Z" fill="currentColor" transform="rotate(270 200 200)"/>
    <path d="M200 20L220 60H180L200 20Z" fill="currentColor" transform="rotate(315 200 200)"/>
    
    <circle cx="200" cy="200" r="60" stroke="currentColor" stroke-width="2"/>
    <path d="M200 140C215 140 230 155 230 170C230 185 215 200 200 200C185 200 170 185 170 170C170 155 185 140 200 140Z" stroke="currentColor" transform="rotate(0 200 200)"/>
    <path d="M200 140C215 140 230 155 230 170C230 185 215 200 200 200C185 200 170 185 170 170C170 155 185 140 200 140Z" stroke="currentColor" transform="rotate(60 200 200)"/>
    <path d="M200 140C215 140 230 155 230 170C230 185 215 200 200 200C185 200 170 185 170 170C170 155 185 140 200 140Z" stroke="currentColor" transform="rotate(120 200 200)"/>
    <path d="M200 140C215 140 230 155 230 170C230 185 215 200 200 200C185 200 170 185 170 170C170 155 185 140 200 140Z" stroke="currentColor" transform="rotate(180 200 200)"/>
    <path d="M200 140C215 140 230 155 230 170C230 185 215 200 200 200C185 200 170 185 170 170C170 155 185 140 200 140Z" stroke="currentColor" transform="rotate(240 200 200)"/>
    <path d="M200 140C215 140 230 155 230 170C230 185 215 200 200 200C185 200 170 185 170 170C170 155 185 140 200 140Z" stroke="currentColor" transform="rotate(300 200 200)"/>
  </g>
</svg>
